<svg id="visual" viewBox="0 0 900 675" width="900" height="675" xmlns="http://www.w3.org/2000/svg" xmlns:xlink="http://www.w3.org/1999/xlink" version="1.1"><rect x="0" y="0" width="900" height="675" fill="#031421"></rect><path d="M144 0L143.3 7.5C142.7 15 141.3 30 164.2 45C187 60 234 75 258.5 90C283 105 285 120 262.3 135C239.7 150 192.3 165 170.7 180C149 195 153 210 175.5 225C198 240 239 255 253 270C267 285 254 300 252.8 315C251.7 330 262.3 345 253.2 360C244 375 215 390 218.5 405C222 420 258 435 269.8 450C281.7 465 269.3 480 267.2 495C265 510 273 525 280.7 540C288.3 555 295.7 570 269.3 585C243 600 183 615 165 630C147 645 171 660 183 667.5L195 675L0 675L0 667.5C0 660 0 645 0 630C0 615 0 600 0 585C0 570 0 555 0 540C0 525 0 510 0 495C0 480 0 465 0 450C0 435 0 420 0 405C0 390 0 375 0 360C0 345 0 330 0 315C0 300 0 285 0 270C0 255 0 240 0 225C0 210 0 195 0 180C0 165 0 150 0 135C0 120 0 105 0 90C0 75 0 60 0 45C0 30 0 15 0 7.5L0 0Z" fill="#203089"></path><path d="M234 0L224.7 7.5C215.3 15 196.7 30 203.2 45C209.7 60 241.3 75 255.5 90C269.7 105 266.3 120 242.8 135C219.3 150 175.7 165 181.2 180C186.7 195 241.3 210 237.5 225C233.7 240 171.3 255 155.3 270C139.3 285 169.7 300 175.7 315C181.7 330 163.3 345 156.3 360C149.3 375 153.7 390 176.3 405C199 420 240 435 258.7 450C277.3 465 273.7 480 275.2 495C276.7 510 283.3 525 276.8 540C270.3 555 250.7 570 241.2 585C231.7 600 232.3 615 241.7 630C251 645 269 660 278 667.5L287 675L0 675L0 667.5C0 660 0 645 0 630C0 615 0 600 0 585C0 570 0 555 0 540C0 525 0 510 0 495C0 480 0 465 0 450C0 435 0 420 0 405C0 390 0 375 0 360C0 345 0 330 0 315C0 300 0 285 0 270C0 255 0 240 0 225C0 210 0 195 0 180C0 165 0 150 0 135C0 120 0 105 0 90C0 75 0 60 0 45C0 30 0 15 0 7.5L0 0Z" fill="#1f378e"></path><path d="M249 0L239.7 7.5C230.3 15 211.7 30 184.5 45C157.3 60 121.7 75 119.2 90C116.7 105 147.3 120 148.2 135C149 150 120 165 134.7 180C149.3 195 207.7 210 226.5 225C245.3 240 224.7 255 208.7 270C192.7 285 181.3 300 172.2 315C163 330 156 345 156.3 360C156.7 375 164.3 390 173.3 405C182.3 420 192.7 435 197.8 450C203 465 203 480 213.3 495C223.7 510 244.3 525 248.3 540C252.3 555 239.7 570 219.3 585C199 600 171 615 154.5 630C138 645 133 660 130.5 667.5L128 675L0 675L0 667.5C0 660 0 645 0 630C0 615 0 600 0 585C0 570 0 555 0 540C0 525 0 510 0 495C0 480 0 465 0 450C0 435 0 420 0 405C0 390 0 375 0 360C0 345 0 330 0 315C0 300 0 285 0 270C0 255 0 240 0 225C0 210 0 195 0 180C0 165 0 150 0 135C0 120 0 105 0 90C0 75 0 60 0 45C0 30 0 15 0 7.5L0 0Z" fill="#203d92"></path><path d="M79 0L82.8 7.5C86.7 15 94.3 30 98.8 45C103.3 60 104.7 75 121.8 90C139 105 172 120 173.7 135C175.3 150 145.7 165 151.7 180C157.7 195 199.3 210 193.8 225C188.3 240 135.7 255 131.3 270C127 285 171 300 191.7 315C212.3 330 209.7 345 185.8 360C162 375 117 390 97.7 405C78.3 420 84.7 435 104.2 450C123.7 465 156.3 480 175.2 495C194 510 199 525 193.7 540C188.3 555 172.7 570 154.8 585C137 600 117 615 119.3 630C121.7 645 146.3 660 158.7 667.5L171 675L0 675L0 667.5C0 660 0 645 0 630C0 615 0 600 0 585C0 570 0 555 0 540C0 525 0 510 0 495C0 480 0 465 0 450C0 435 0 420 0 405C0 390 0 375 0 360C0 345 0 330 0 315C0 300 0 285 0 270C0 255 0 240 0 225C0 210 0 195 0 180C0 165 0 150 0 135C0 120 0 105 0 90C0 75 0 60 0 45C0 30 0 15 0 7.5L0 0Z" fill="#204496"></path><path d="M147 0L152.5 7.5C158 15 169 30 158 45C147 60 114 75 93.2 90C72.3 105 63.7 120 82.8 135C102 150 149 165 153.2 180C157.3 195 118.7 210 112.7 225C106.7 240 133.3 255 139.8 270C146.3 285 132.7 300 123.3 315C114 330 109 345 103.8 360C98.7 375 93.3 390 86.5 405C79.7 420 71.3 435 73.7 450C76 465 89 480 104.5 495C120 510 138 525 140 540C142 555 128 570 117.5 585C107 600 100 615 112 630C124 645 155 660 170.5 667.5L186 675L0 675L0 667.5C0 660 0 645 0 630C0 615 0 600 0 585C0 570 0 555 0 540C0 525 0 510 0 495C0 480 0 465 0 450C0 435 0 420 0 405C0 390 0 375 0 360C0 345 0 330 0 315C0 300 0 285 0 270C0 255 0 240 0 225C0 210 0 195 0 180C0 165 0 150 0 135C0 120 0 105 0 90C0 75 0 60 0 45C0 30 0 15 0 7.5L0 0Z" fill="#224a9a"></path><path d="M134 0L126.2 7.5C118.3 15 102.7 30 87.8 45C73 60 59 75 66.8 90C74.7 105 104.3 120 122.5 135C140.7 150 147.3 165 137.2 180C127 195 100 210 96.2 225C92.3 240 111.7 255 126 270C140.3 285 149.7 300 150.8 315C152 330 145 345 125.3 360C105.7 375 73.3 390 78.7 405C84 420 127 435 127 450C127 465 84 480 63 495C42 510 43 525 57 540C71 555 98 570 104 585C110 600 95 615 83.8 630C72.7 645 65.3 660 61.7 667.5L58 675L0 675L0 667.5C0 660 0 645 0 630C0 615 0 600 0 585C0 570 0 555 0 540C0 525 0 510 0 495C0 480 0 465 0 450C0 435 0 420 0 405C0 390 0 375 0 360C0 345 0 330 0 315C0 300 0 285 0 270C0 255 0 240 0 225C0 210 0 195 0 180C0 165 0 150 0 135C0 120 0 105 0 90C0 75 0 60 0 45C0 30 0 15 0 7.5L0 0Z" fill="#24509e"></path><path d="M114 0L117.7 7.5C121.3 15 128.7 30 120.2 45C111.7 60 87.3 75 75.2 90C63 105 63 120 64.7 135C66.3 150 69.7 165 66.7 180C63.7 195 54.3 210 55.3 225C56.3 240 67.7 255 78.3 270C89 285 99 300 108.3 315C117.7 330 126.3 345 121 360C115.7 375 96.3 390 87.8 405C79.3 420 81.7 435 89.3 450C97 465 110 480 114.5 495C119 510 115 525 115.7 540C116.3 555 121.7 570 112.3 585C103 600 79 615 63 630C47 645 39 660 35 667.5L31 675L0 675L0 667.5C0 660 0 645 0 630C0 615 0 600 0 585C0 570 0 555 0 540C0 525 0 510 0 495C0 480 0 465 0 450C0 435 0 420 0 405C0 390 0 375 0 360C0 345 0 330 0 315C0 300 0 285 0 270C0 255 0 240 0 225C0 210 0 195 0 180C0 165 0 150 0 135C0 120 0 105 0 90C0 75 0 60 0 45C0 30 0 15 0 7.5L0 0Z" fill="#2857a1"></path><path d="M21 0L25.7 7.5C30.3 15 39.7 30 48 45C56.3 60 63.7 75 72.5 90C81.3 105 91.7 120 84.2 135C76.7 150 51.3 165 47.5 180C43.7 195 61.3 210 66 225C70.7 240 62.3 255 61.2 270C60 285 66 300 73.3 315C80.7 330 89.3 345 82.7 360C76 375 54 390 54.5 405C55 420 78 435 80.3 450C82.7 465 64.3 480 53.8 495C43.3 510 40.7 525 46.8 540C53 555 68 570 72 585C76 600 69 615 67.7 630C66.3 645 70.7 660 72.8 667.5L75 675L0 675L0 667.5C0 660 0 645 0 630C0 615 0 600 0 585C0 570 0 555 0 540C0 525 0 510 0 495C0 480 0 465 0 450C0 435 0 420 0 405C0 390 0 375 0 360C0 345 0 330 0 315C0 300 0 285 0 270C0 255 0 240 0 225C0 210 0 195 0 180C0 165 0 150 0 135C0 120 0 105 0 90C0 75 0 60 0 45C0 30 0 15 0 7.5L0 0Z" fill="#2b5da5"></path><path d="M28 0L33.7 7.5C39.3 15 50.7 30 53 45C55.3 60 48.7 75 47.8 90C47 105 52 120 47 135C42 150 27 165 29 180C31 195 50 210 59 225C68 240 67 255 57.5 270C48 285 30 300 22.5 315C15 330 18 345 26.2 360C34.3 375 47.7 390 50.3 405C53 420 45 435 35.8 450C26.7 465 16.3 480 11.7 495C7 510 8 525 12.3 540C16.7 555 24.3 570 32.5 585C40.7 600 49.3 615 53.3 630C57.3 645 56.7 660 56.3 667.5L56 675L0 675L0 667.5C0 660 0 645 0 630C0 615 0 600 0 585C0 570 0 555 0 540C0 525 0 510 0 495C0 480 0 465 0 450C0 435 0 420 0 405C0 390 0 375 0 360C0 345 0 330 0 315C0 300 0 285 0 270C0 255 0 240 0 225C0 210 0 195 0 180C0 165 0 150 0 135C0 120 0 105 0 90C0 75 0 60 0 45C0 30 0 15 0 7.5L0 0Z" fill="#3063a8"></path></svg>