<svg id="visual" viewBox="0 0 900 600" width="900" height="600" xmlns="http://www.w3.org/2000/svg" xmlns:xlink="http://www.w3.org/1999/xlink" version="1.1"><path d="M157 0L164.3 12.5C171.7 25 186.3 50 193.3 75C200.3 100 199.7 125 194.8 150C190 175 181 200 167.8 225C154.7 250 137.3 275 129.3 300C121.3 325 122.7 350 128.3 375C134 400 144 425 144.5 450C145 475 136 500 132 525C128 550 129 575 129.5 587.5L130 600L0 600L0 587.5C0 575 0 550 0 525C0 500 0 475 0 450C0 425 0 400 0 375C0 350 0 325 0 300C0 275 0 250 0 225C0 200 0 175 0 150C0 125 0 100 0 75C0 50 0 25 0 12.5L0 0Z" fill="#0d216a"></path><path d="M119 0L130.8 12.5C142.7 25 166.3 50 176 75C185.7 100 181.3 125 165.2 150C149 175 121 200 110.2 225C99.3 250 105.7 275 114.2 300C122.7 325 133.3 350 138.8 375C144.3 400 144.7 425 135.8 450C127 475 109 500 102.7 525C96.3 550 101.7 575 104.3 587.5L107 600L0 600L0 587.5C0 575 0 550 0 525C0 500 0 475 0 450C0 425 0 400 0 375C0 350 0 325 0 300C0 275 0 250 0 225C0 200 0 175 0 150C0 125 0 100 0 75C0 50 0 25 0 12.5L0 0Z" fill="#122671"></path><path d="M135 0L131.3 12.5C127.7 25 120.3 50 119.7 75C119 100 125 125 120.2 150C115.3 175 99.7 200 92.8 225C86 250 88 275 89.2 300C90.3 325 90.7 350 92.7 375C94.7 400 98.3 425 108.7 450C119 475 136 500 138.8 525C141.7 550 130.3 575 124.7 587.5L119 600L0 600L0 587.5C0 575 0 550 0 525C0 500 0 475 0 450C0 425 0 400 0 375C0 350 0 325 0 300C0 275 0 250 0 225C0 200 0 175 0 150C0 125 0 100 0 75C0 50 0 25 0 12.5L0 0Z" fill="#162c77"></path><path d="M113 0L116.8 12.5C120.7 25 128.3 50 122.2 75C116 100 96 125 93.5 150C91 175 106 200 115.5 225C125 250 129 275 121.3 300C113.7 325 94.3 350 92.3 375C90.3 400 105.7 425 114.8 450C124 475 127 500 126.5 525C126 550 122 575 120 587.5L118 600L0 600L0 587.5C0 575 0 550 0 525C0 500 0 475 0 450C0 425 0 400 0 375C0 350 0 325 0 300C0 275 0 250 0 225C0 200 0 175 0 150C0 125 0 100 0 75C0 50 0 25 0 12.5L0 0Z" fill="#1a317e"></path><path d="M86 0L85.8 12.5C85.7 25 85.3 50 79.8 75C74.3 100 63.7 125 67.7 150C71.7 175 90.3 200 97.7 225C105 250 101 275 93.7 300C86.3 325 75.7 350 71.2 375C66.7 400 68.3 425 73.5 450C78.7 475 87.3 500 91.7 525C96 550 96 575 96 587.5L96 600L0 600L0 587.5C0 575 0 550 0 525C0 500 0 475 0 450C0 425 0 400 0 375C0 350 0 325 0 300C0 275 0 250 0 225C0 200 0 175 0 150C0 125 0 100 0 75C0 50 0 25 0 12.5L0 0Z" fill="#1e3784"></path><path d="M91 0L84 12.5C77 25 63 50 57 75C51 100 53 125 54.5 150C56 175 57 200 55.7 225C54.3 250 50.7 275 49 300C47.3 325 47.7 350 48.7 375C49.7 400 51.3 425 50.3 450C49.3 475 45.7 500 48.5 525C51.3 550 60.7 575 65.3 587.5L70 600L0 600L0 587.5C0 575 0 550 0 525C0 500 0 475 0 450C0 425 0 400 0 375C0 350 0 325 0 300C0 275 0 250 0 225C0 200 0 175 0 150C0 125 0 100 0 75C0 50 0 25 0 12.5L0 0Z" fill="#223c8b"></path><path d="M54 0L53.8 12.5C53.7 25 53.3 50 50.5 75C47.7 100 42.3 125 44.2 150C46 175 55 200 59.8 225C64.7 250 65.3 275 60.7 300C56 325 46 350 43.3 375C40.7 400 45.3 425 45.3 450C45.3 475 40.7 500 40.8 525C41 550 46 575 48.5 587.5L51 600L0 600L0 587.5C0 575 0 550 0 525C0 500 0 475 0 450C0 425 0 400 0 375C0 350 0 325 0 300C0 275 0 250 0 225C0 200 0 175 0 150C0 125 0 100 0 75C0 50 0 25 0 12.5L0 0Z" fill="#264291"></path><path d="M19 0L22.7 12.5C26.3 25 33.7 50 33.7 75C33.7 100 26.3 125 24.7 150C23 175 27 200 28.7 225C30.3 250 29.7 275 31.2 300C32.7 325 36.3 350 38.8 375C41.3 400 42.7 425 41.3 450C40 475 36 500 34.2 525C32.3 550 32.7 575 32.8 587.5L33 600L0 600L0 587.5C0 575 0 550 0 525C0 500 0 475 0 450C0 425 0 400 0 375C0 350 0 325 0 300C0 275 0 250 0 225C0 200 0 175 0 150C0 125 0 100 0 75C0 50 0 25 0 12.5L0 0Z" fill="#2a4898"></path></svg>